<svg width="152" height="120" viewBox="0 0 152 120" fill="none" xmlns="http://www.w3.org/2000/svg">
<path d="M3 103.68V86.1074H10.2688C11.9462 86.1074 13.384 86.6666 14.4224 87.8647C15.4608 88.983 16.02 90.5007 16.02 92.1781C16.02 93.9354 15.4608 95.453 14.4224 96.5713C13.384 97.6896 11.9462 98.3286 10.2688 98.3286H7.31336V103.76L3 103.68ZM7.31336 94.4945H9.39017C10.1091 94.4945 10.6682 94.2549 11.0676 93.7756C11.467 93.2964 11.6267 92.7372 11.6267 92.0183C11.6267 91.2994 11.467 90.7403 11.0676 90.261C10.6682 89.7818 10.1091 89.622 9.47005 89.622H7.31336V94.4945Z" fill="#362C14"/>
<path d="M18.2563 103.68V90.98H22.3301V93.1367L22.2502 93.9354H22.3301C22.6496 93.0568 23.1289 92.3379 23.8477 91.6989C24.5666 91.1397 25.4453 90.7404 26.3239 90.7404C26.4837 90.7404 26.6434 90.7404 26.8032 90.8202V94.9738C26.6434 94.894 26.3239 94.894 25.9246 94.894C24.8063 94.894 23.9276 95.2135 23.2886 95.8525C22.7295 96.5714 22.41 97.45 22.41 98.6482V103.521L18.2563 103.68Z" fill="#362C14"/>
<path d="M28.96 103.68V90.98H33.1934V103.68H28.96ZM29.0398 89.3824V86.0276H33.1934V89.3824H29.0398Z" fill="#362C14"/>
<path d="M36.6284 103.68V90.98H40.7022V92.0983L40.6223 92.8971H40.7022C41.6607 91.4593 42.9387 90.6605 44.4564 90.6605C46.1338 90.6605 47.332 91.3794 47.971 92.8172H48.0508C48.3704 92.2581 48.9295 91.6989 49.6484 91.2995C50.3673 90.9002 51.1661 90.6605 52.0447 90.6605C53.2429 90.6605 54.2813 91.0599 55.0002 91.7788C55.7191 92.4977 56.1184 93.7757 56.1184 95.3733V103.601H51.8849V96.0922C51.8849 94.9739 51.5654 94.4946 50.9264 94.4946C50.1277 94.4946 49.4886 94.8141 49.0893 95.6129C48.6899 96.4117 48.5301 97.2104 48.5301 98.2488V103.601H44.2966V96.0922C44.2966 94.9739 43.9771 94.4946 43.3381 94.4946C42.4594 94.4946 41.8204 94.8141 41.5009 95.6129C41.1814 96.4117 40.9418 97.2104 40.9418 98.2488V103.601H36.7083V103.68H36.6284Z" fill="#362C14"/>
<path d="M58.7544 97.2903C58.7544 95.3732 59.3135 93.7757 60.5117 92.5775C61.7098 91.2995 63.3074 90.7404 65.3043 90.7404C67.1415 90.7404 68.5793 91.2995 69.5378 92.4977C70.5762 93.6159 71.1353 95.1336 71.1353 96.8909C71.1353 97.2104 71.0555 97.6098 71.0555 98.2488H63.0678C63.2275 98.9677 63.547 99.5268 64.1062 99.9262C64.6653 100.326 65.3043 100.485 66.0232 100.485C67.0616 100.485 68.2598 100.006 69.5378 99.2073L71.1353 102.163C70.4165 102.722 69.6976 103.201 68.6592 103.521C67.6207 103.84 66.6622 104 65.7037 104C63.547 104 61.8696 103.361 60.5916 102.003C59.3934 100.645 58.7544 99.0476 58.7544 97.2903ZM63.2275 95.6927H66.9817C66.9817 95.1336 66.822 94.7342 66.5025 94.3348C66.183 94.0153 65.7836 93.7757 65.2244 93.7757C64.186 93.8556 63.4671 94.4946 63.2275 95.6927Z" fill="#362C14"/>
<path d="M84.1554 103.68L79.9219 86.1074H84.395L86.6315 97.1305C86.7114 97.45 86.7114 97.7695 86.7913 98.089C86.8712 98.4085 86.8712 98.6481 86.8712 98.8079V99.0475H86.9511C86.9511 98.5682 87.0309 97.9292 87.2706 97.2103L89.9864 86.1873H93.4211L96.0571 97.2103C96.1369 97.5298 96.2168 97.8494 96.2168 98.1689C96.2967 98.4884 96.2967 98.728 96.2967 98.8878V99.1274H96.3766C96.3766 98.6481 96.4564 98.0091 96.5363 97.2902L98.9326 86.2672H103.326L98.9326 103.84H94.14L91.9034 94.9738L91.5839 92.897H91.5041C91.4242 93.536 91.3443 94.2549 91.1845 94.9738L88.948 103.84L84.1554 103.68Z" fill="#362C14"/>
<path d="M106.042 102.083C104.684 100.885 103.965 99.2873 103.965 97.2903C103.965 95.2934 104.684 93.7757 106.042 92.4977C107.4 91.2995 109.157 90.6605 111.154 90.6605C113.151 90.6605 114.908 91.2995 116.266 92.4977C117.624 93.6959 118.343 95.3733 118.343 97.2903C118.343 99.2074 117.624 100.805 116.266 102.083C114.908 103.361 113.151 103.92 111.154 103.92C109.157 103.92 107.4 103.281 106.042 102.083ZM108.278 97.3702C108.278 98.3287 108.598 99.0476 109.077 99.6068C109.556 100.166 110.275 100.406 111.074 100.406C111.873 100.406 112.512 100.086 113.151 99.6068C113.71 99.0476 113.949 98.3287 113.949 97.3702C113.949 96.4117 113.63 95.6928 113.151 95.1336C112.592 94.5745 111.953 94.255 111.074 94.255C110.275 94.255 109.636 94.5745 109.077 95.1336C108.518 95.6129 108.278 96.4117 108.278 97.3702Z" fill="#362C14"/>
<path d="M122.256 102.083C120.899 100.885 120.18 99.2873 120.18 97.2903C120.18 95.2934 120.899 93.7757 122.256 92.4977C123.614 91.2995 125.372 90.6605 127.369 90.6605C129.366 90.6605 131.123 91.2995 132.481 92.4977C133.839 93.6959 134.558 95.3733 134.558 97.2903C134.558 99.2074 133.839 100.805 132.481 102.083C131.123 103.281 129.366 103.92 127.369 103.92C125.372 103.92 123.614 103.281 122.256 102.083ZM124.493 97.3702C124.493 98.3287 124.813 99.0476 125.292 99.6068C125.771 100.166 126.49 100.406 127.289 100.406C128.088 100.406 128.727 100.086 129.366 99.6068C129.925 99.0476 130.164 98.3287 130.164 97.3702C130.164 96.4117 129.845 95.6928 129.366 95.1336C128.806 94.5745 128.167 94.255 127.289 94.255C126.49 94.255 125.851 94.5745 125.292 95.1336C124.813 95.6129 124.493 96.4117 124.493 97.3702Z" fill="#362C14"/>
<path d="M138.152 102.083C137.114 100.885 136.555 99.2871 136.555 97.2902C136.555 95.2933 137.114 93.6957 138.152 92.4976C139.271 91.2994 140.628 90.6604 142.306 90.6604C143.824 90.6604 144.942 90.9799 145.661 91.6988H145.741C145.741 91.5391 145.741 91.3793 145.741 91.1397V86.1074H149.974V103.68H145.98V102.882L146.06 102.163H145.98C145.181 103.361 143.983 104 142.306 104C140.549 103.92 139.191 103.281 138.152 102.083ZM141.507 95.1335C141.028 95.6927 140.788 96.4116 140.788 97.3701C140.788 98.3286 141.028 99.0475 141.507 99.6066C141.986 100.166 142.545 100.485 143.264 100.485C143.983 100.485 144.542 100.246 145.022 99.6865C145.501 99.1274 145.741 98.4085 145.741 97.3701C145.741 96.5713 145.581 95.8524 145.102 95.2933C144.622 94.7341 144.063 94.4146 143.264 94.4146C142.625 94.2549 142.066 94.5744 141.507 95.1335Z" fill="#362C14"/>
<path d="M69.7774 72.2888C51.805 72.2888 37.1875 57.6713 37.1875 39.6989C37.1875 21.7266 51.805 7.10907 69.7774 7.10907C87.7497 7.10907 102.367 21.7266 102.367 39.6989C102.367 57.6713 87.7497 72.2888 69.7774 72.2888ZM69.7774 20.4485C59.2336 20.4485 50.6069 29.0753 50.6069 39.619C50.6069 50.1628 59.2336 58.7896 69.7774 58.7896C80.3211 58.7896 88.9479 50.1628 88.9479 39.619C88.9479 29.0753 80.3211 20.4485 69.7774 20.4485Z" fill="#DEE22F"/>
<path d="M81.9185 65.2596C63.9461 65.2596 49.3286 50.6421 49.3286 32.5899C49.3286 14.5376 63.9461 0 81.9185 0C99.8908 0 114.508 14.6175 114.508 32.5899C114.508 50.5622 99.8908 65.2596 81.9185 65.2596ZM81.9185 13.4194C71.3747 13.4194 62.748 22.0461 62.748 32.5899C62.748 43.1336 71.3747 51.7604 81.9185 51.7604C92.4623 51.7604 101.089 43.1336 101.089 32.5899C101.089 22.0461 92.5421 13.4194 81.9185 13.4194Z" fill="#F99E29"/>
<path d="M83.9155 72.2888C65.9432 72.2888 51.3257 57.6713 51.3257 39.6989C51.3257 21.7266 65.9432 7.10907 83.9155 7.10907C101.888 7.10907 116.505 21.7266 116.505 39.6989C116.505 57.6713 101.888 72.2888 83.9155 72.2888ZM83.9155 20.4485C73.3718 20.4485 64.745 29.0753 64.745 39.619C64.745 50.1628 73.3718 58.7896 83.9155 58.7896C94.4593 58.7896 103.086 50.1628 103.086 39.619C103.086 29.0753 94.4593 20.4485 83.9155 20.4485Z" fill="#00A85F"/>
<path d="M76.8062 72.2888C58.8338 72.2888 44.2163 57.6713 44.2163 39.6989C44.2163 21.7266 58.8338 7.10907 76.8062 7.10907C94.7785 7.10907 109.396 21.7266 109.396 39.6989C109.396 57.6713 94.7785 72.2888 76.8062 72.2888ZM76.8062 20.4485C66.2624 20.4485 57.6357 29.0753 57.6357 39.619C57.6357 50.1628 66.2624 58.7896 76.8062 58.7896C87.35 58.7896 95.9767 50.1628 95.9767 39.619C95.9767 29.0753 87.4298 20.4485 76.8062 20.4485Z" fill="#77C043"/>
<path d="M8.05593 111.826C8.05593 112.346 7.99013 112.819 7.85853 113.245C7.72693 113.665 7.52953 114.029 7.26633 114.336C7.00939 114.643 6.68666 114.878 6.29813 115.041C5.91586 115.204 5.47093 115.285 4.96333 115.285C4.43693 115.285 3.97946 115.204 3.59093 115.041C3.20239 114.871 2.87966 114.636 2.62273 114.336C2.36579 114.029 2.17466 113.662 2.04933 113.236C1.92399 112.81 1.86133 112.337 1.86133 111.816C1.86133 111.127 1.97413 110.525 2.19973 110.012C2.42533 109.498 2.76686 109.097 3.22433 108.808C3.68806 108.52 4.27086 108.376 4.97273 108.376C5.64326 108.376 6.20726 108.52 6.66473 108.808C7.12219 109.09 7.46686 109.491 7.69873 110.012C7.93686 110.525 8.05593 111.13 8.05593 111.826ZM2.75433 111.826C2.75433 112.39 2.83266 112.875 2.98933 113.283C3.14599 113.69 3.38726 114.003 3.71313 114.223C4.04526 114.442 4.46199 114.552 4.96333 114.552C5.47093 114.552 5.88453 114.442 6.20413 114.223C6.52999 114.003 6.77126 113.69 6.92793 113.283C7.08459 112.875 7.16293 112.39 7.16293 111.826C7.16293 110.98 6.98746 110.319 6.63653 109.842C6.28559 109.36 5.73099 109.119 4.97273 109.119C4.46513 109.119 4.04526 109.228 3.71313 109.448C3.38726 109.661 3.14599 109.971 2.98933 110.378C2.83266 110.779 2.75433 111.262 2.75433 111.826Z" fill="#362C14"/>
<path d="M12.8147 110.077C13.316 110.121 13.7515 110.253 14.1213 110.472C14.4973 110.692 14.7887 110.986 14.9955 111.356C15.2023 111.726 15.3057 112.164 15.3057 112.672C15.3057 113.179 15.2054 113.621 15.0049 113.997C14.8043 114.367 14.5192 114.661 14.1495 114.881C13.7797 115.094 13.3348 115.222 12.8147 115.266V117.447H12.0063V115.266C11.5112 115.222 11.0757 115.094 10.6997 114.881C10.3237 114.661 10.0323 114.367 9.82548 113.997C9.61868 113.621 9.51528 113.179 9.51528 112.672C9.51528 112.158 9.61554 111.716 9.81608 111.346C10.0166 110.97 10.3049 110.676 10.6809 110.463C11.0569 110.243 11.5081 110.115 12.0345 110.077V108.047H12.8147V110.077ZM12.0345 110.764C11.6522 110.801 11.3389 110.898 11.0945 111.055C10.8501 111.212 10.6683 111.425 10.5493 111.694C10.4365 111.964 10.3801 112.29 10.3801 112.672C10.3801 113.048 10.4365 113.374 10.5493 113.649C10.6683 113.919 10.8501 114.135 11.0945 114.298C11.3389 114.455 11.6522 114.552 12.0345 114.589V110.764ZM12.8147 114.589C13.1907 114.546 13.4977 114.445 13.7359 114.289C13.9803 114.132 14.1589 113.919 14.2717 113.649C14.3907 113.374 14.4503 113.048 14.4503 112.672C14.4503 112.296 14.3907 111.973 14.2717 111.704C14.1526 111.434 13.9709 111.221 13.7265 111.064C13.4883 110.908 13.1844 110.811 12.8147 110.773V114.589Z" fill="#362C14"/>
<path d="M17.7742 113.226C17.7742 113.283 17.7711 113.364 17.7648 113.471C17.7648 113.571 17.7617 113.681 17.7554 113.8C17.7491 113.913 17.7429 114.022 17.7366 114.129C17.7303 114.229 17.7241 114.311 17.7178 114.373L20.4156 110.153H21.4308V115.191H20.66V112.221C20.66 112.12 20.66 111.989 20.66 111.826C20.6663 111.663 20.6725 111.503 20.6788 111.346C20.6851 111.183 20.6913 111.061 20.6976 110.98L18.0186 115.191H16.994V110.153H17.7742V113.226Z" fill="#362C14"/>
<path d="M25.4312 115.285C24.9863 115.285 24.5884 115.194 24.2374 115.012C23.8928 114.831 23.6202 114.549 23.4196 114.166C23.2254 113.784 23.1282 113.295 23.1282 112.7C23.1282 112.08 23.2316 111.575 23.4384 111.187C23.6452 110.798 23.9241 110.513 24.275 110.331C24.6322 110.149 25.0364 110.059 25.4876 110.059C25.7446 110.059 25.9921 110.087 26.2302 110.143C26.4684 110.193 26.6626 110.256 26.813 110.331L26.5592 111.017C26.4088 110.961 26.2334 110.908 26.0328 110.858C25.8323 110.807 25.6443 110.782 25.4688 110.782C25.1304 110.782 24.8516 110.854 24.6322 110.999C24.4129 111.143 24.25 111.356 24.1434 111.638C24.0369 111.92 23.9836 112.271 23.9836 112.691C23.9836 113.092 24.0369 113.433 24.1434 113.715C24.25 113.997 24.4098 114.21 24.6228 114.354C24.8359 114.499 25.1022 114.571 25.4218 114.571C25.6976 114.571 25.9388 114.542 26.1456 114.486C26.3587 114.43 26.553 114.361 26.7284 114.279V115.012C26.5592 115.1 26.3712 115.166 26.1644 115.21C25.9639 115.26 25.7195 115.285 25.4312 115.285Z" fill="#362C14"/>
<path d="M29.1298 110.153V112.249H31.8652V110.153H32.6924V115.191H31.8652V112.944H29.1298V115.191H28.3026V110.153H29.1298Z" fill="#362C14"/>
<path d="M36.572 110.068C37.1861 110.068 37.6405 110.203 37.935 110.472C38.2295 110.742 38.3768 111.171 38.3768 111.76V115.191H37.7752L37.6154 114.477H37.5778C37.4337 114.658 37.2833 114.812 37.1266 114.937C36.9762 115.056 36.8007 115.144 36.6002 115.2C36.4059 115.257 36.1678 115.285 35.8858 115.285C35.585 115.285 35.3124 115.232 35.068 115.125C34.8299 115.019 34.6419 114.856 34.504 114.636C34.3661 114.411 34.2972 114.129 34.2972 113.79C34.2972 113.289 34.4946 112.904 34.8894 112.634C35.2842 112.358 35.8921 112.208 36.713 112.183L37.5684 112.155V111.854C37.5684 111.434 37.4775 111.143 37.2958 110.98C37.1141 110.817 36.8571 110.735 36.525 110.735C36.2618 110.735 36.0111 110.776 35.773 110.858C35.5349 110.933 35.3124 111.021 35.1056 111.121L34.8518 110.5C35.0711 110.381 35.3312 110.281 35.632 110.2C35.9328 110.112 36.2461 110.068 36.572 110.068ZM36.8164 112.756C36.1897 112.781 35.7542 112.882 35.5098 113.057C35.2717 113.233 35.1526 113.48 35.1526 113.8C35.1526 114.082 35.2372 114.289 35.4064 114.42C35.5819 114.552 35.8043 114.618 36.0738 114.618C36.4999 114.618 36.854 114.502 37.136 114.27C37.418 114.032 37.559 113.668 37.559 113.179V112.728L36.8164 112.756Z" fill="#362C14"/>
<path d="M40.6191 115.191H39.6603L41.0985 113.076C40.9043 113.026 40.7163 112.948 40.5345 112.841C40.3528 112.728 40.2055 112.575 40.0927 112.38C39.9799 112.18 39.9235 111.932 39.9235 111.638C39.9235 111.155 40.0865 110.789 40.4123 110.538C40.7382 110.281 41.1706 110.153 41.7095 110.153H43.9655V115.191H43.1383V113.189H41.9163L40.6191 115.191ZM40.7225 111.647C40.7225 111.935 40.8291 112.152 41.0421 112.296C41.2615 112.434 41.5654 112.503 41.9539 112.503H43.1383V110.839H41.7941C41.4119 110.839 41.1361 110.914 40.9669 111.064C40.804 111.215 40.7225 111.409 40.7225 111.647Z" fill="#362C14"/>
<path d="M53.672 110.153V115.191H52.9294V111.976C52.9294 111.845 52.9325 111.707 52.9388 111.563C52.9513 111.418 52.9639 111.277 52.9764 111.14H52.9482L51.3032 115.191H50.6076L49.0096 111.14H48.9814C48.9939 111.277 49.0002 111.418 49.0002 111.563C49.0065 111.707 49.0096 111.854 49.0096 112.004V115.191H48.267V110.153H49.3668L50.9554 114.204L52.5722 110.153H53.672Z" fill="#362C14"/>
<path d="M57.6021 110.059C58.0345 110.059 58.4042 110.153 58.7113 110.341C59.0246 110.529 59.2627 110.795 59.4257 111.14C59.5949 111.478 59.6795 111.876 59.6795 112.333V112.832H56.2297C56.2422 113.402 56.3863 113.837 56.6621 114.138C56.9441 114.433 57.3357 114.58 57.8371 114.58C58.1567 114.58 58.4387 114.552 58.6831 114.495C58.9337 114.433 59.1907 114.345 59.4539 114.232V114.956C59.1969 115.069 58.9431 115.15 58.6925 115.2C58.4418 115.257 58.1441 115.285 57.7995 115.285C57.3232 115.285 56.9002 115.188 56.5305 114.994C56.167 114.799 55.8819 114.511 55.6751 114.129C55.4745 113.74 55.3743 113.267 55.3743 112.709C55.3743 112.158 55.4651 111.685 55.6469 111.29C55.8349 110.895 56.0949 110.591 56.4271 110.378C56.7655 110.165 57.1571 110.059 57.6021 110.059ZM57.5927 110.735C57.1979 110.735 56.8845 110.864 56.6527 111.121C56.4271 111.371 56.2923 111.722 56.2485 112.174H58.8147C58.8147 111.885 58.7708 111.635 58.6831 111.422C58.5953 111.209 58.4606 111.042 58.2789 110.923C58.1034 110.798 57.8747 110.735 57.5927 110.735Z" fill="#362C14"/>
<path d="M61.0749 112.164C61.0749 111.431 61.147 110.807 61.2911 110.294C61.4415 109.773 61.6703 109.36 61.9773 109.053C62.2907 108.739 62.6917 108.53 63.1805 108.423C63.5879 108.335 63.9858 108.257 64.3743 108.188C64.7629 108.119 65.1263 108.056 65.4647 108L65.6057 108.724C65.4428 108.749 65.2611 108.78 65.0605 108.818C64.86 108.849 64.6563 108.884 64.4495 108.921C64.2427 108.953 64.0422 108.987 63.8479 109.025C63.6599 109.056 63.4939 109.087 63.3497 109.119C63.1429 109.162 62.9581 109.238 62.7951 109.344C62.6322 109.444 62.4912 109.582 62.3721 109.758C62.2593 109.933 62.1685 110.149 62.0995 110.406C62.0306 110.663 61.9899 110.967 61.9773 111.318H62.0337C62.1215 111.199 62.2405 111.077 62.3909 110.952C62.5476 110.826 62.7325 110.72 62.9455 110.632C63.1649 110.544 63.4124 110.5 63.6881 110.5C64.1268 110.5 64.4903 110.598 64.7785 110.792C65.0731 110.98 65.2924 111.243 65.4365 111.581C65.5869 111.92 65.6621 112.315 65.6621 112.766C65.6621 113.324 65.565 113.79 65.3707 114.166C65.1765 114.542 64.907 114.824 64.5623 115.012C64.2177 115.194 63.8166 115.285 63.3591 115.285C63.0145 115.285 62.7011 115.219 62.4191 115.088C62.1371 114.95 61.8959 114.749 61.6953 114.486C61.4948 114.223 61.3413 113.897 61.2347 113.508C61.1282 113.12 61.0749 112.672 61.0749 112.164ZM63.4249 114.599C63.7007 114.599 63.9388 114.542 64.1393 114.43C64.3461 114.317 64.5059 114.132 64.6187 113.875C64.7315 113.618 64.7879 113.277 64.7879 112.85C64.7879 112.337 64.6908 111.932 64.4965 111.638C64.3085 111.337 63.9952 111.187 63.5565 111.187C63.2808 111.187 63.0301 111.249 62.8045 111.375C62.5789 111.494 62.3909 111.632 62.2405 111.788C62.0901 111.945 61.9836 112.076 61.9209 112.183C61.9209 112.49 61.9429 112.788 61.9867 113.076C62.0306 113.364 62.1058 113.624 62.2123 113.856C62.3251 114.082 62.4787 114.264 62.6729 114.401C62.8735 114.533 63.1241 114.599 63.4249 114.599Z" fill="#362C14"/>
<path d="M69.2871 110.059C69.7195 110.059 70.0892 110.153 70.3963 110.341C70.7096 110.529 70.9477 110.795 71.1107 111.14C71.2799 111.478 71.3645 111.876 71.3645 112.333V112.832H67.9147C67.9272 113.402 68.0714 113.837 68.3471 114.138C68.6291 114.433 69.0207 114.58 69.5221 114.58C69.8417 114.58 70.1237 114.552 70.3681 114.495C70.6187 114.433 70.8757 114.345 71.1389 114.232V114.956C70.882 115.069 70.6281 115.15 70.3775 115.2C70.1268 115.257 69.8291 115.285 69.4845 115.285C69.0082 115.285 68.5852 115.188 68.2155 114.994C67.852 114.799 67.5669 114.511 67.3601 114.129C67.1596 113.74 67.0593 113.267 67.0593 112.709C67.0593 112.158 67.1501 111.685 67.3319 111.29C67.5199 110.895 67.78 110.591 68.1121 110.378C68.4505 110.165 68.8421 110.059 69.2871 110.059ZM69.2777 110.735C68.8829 110.735 68.5696 110.864 68.3377 111.121C68.1121 111.371 67.9773 111.722 67.9335 112.174H70.4997C70.4997 111.885 70.4558 111.635 70.3681 111.422C70.2803 111.209 70.1456 111.042 69.9639 110.923C69.7884 110.798 69.5597 110.735 69.2777 110.735Z" fill="#362C14"/>
<path d="M76.8583 115.191H76.0217V110.839H74.5365C74.4739 111.635 74.3955 112.315 74.3015 112.879C74.2075 113.436 74.0885 113.891 73.9443 114.242C73.8002 114.593 73.6279 114.849 73.4273 115.012C73.2268 115.175 72.9918 115.257 72.7223 115.257C72.6409 115.257 72.5594 115.251 72.4779 115.238C72.4027 115.232 72.3401 115.216 72.2899 115.191V114.571C72.3275 114.583 72.3683 114.593 72.4121 114.599C72.456 114.605 72.4999 114.608 72.5437 114.608C72.6816 114.608 72.8069 114.552 72.9197 114.439C73.0325 114.326 73.1328 114.154 73.2205 113.922C73.3145 113.69 73.3991 113.399 73.4743 113.048C73.5495 112.691 73.6153 112.271 73.6717 111.788C73.7281 111.306 73.7783 110.76 73.8221 110.153H76.8583V115.191Z" fill="#362C14"/>
<path d="M81.1553 112.221C81.594 112.221 81.9574 112.274 82.2457 112.38C82.534 112.487 82.7502 112.647 82.8943 112.86C83.0447 113.067 83.1199 113.33 83.1199 113.649C83.1199 113.963 83.0479 114.235 82.9037 114.467C82.7659 114.699 82.5496 114.878 82.2551 115.003C81.9606 115.128 81.5814 115.191 81.1177 115.191H78.8335V110.153H79.6607V112.221H81.1553ZM82.2927 113.696C82.2927 113.389 82.183 113.183 81.9637 113.076C81.7506 112.963 81.4499 112.907 81.0613 112.907H79.6607V114.524H81.0801C81.431 114.524 81.7193 114.461 81.9449 114.336C82.1768 114.21 82.2927 113.997 82.2927 113.696Z" fill="#362C14"/>
<path d="M91.1734 111.422C91.1734 111.735 91.0794 111.979 90.8914 112.155C90.7034 112.33 90.4622 112.449 90.1676 112.512V112.55C90.481 112.593 90.7536 112.706 90.9854 112.888C91.2173 113.063 91.3332 113.339 91.3332 113.715C91.3332 113.928 91.2925 114.126 91.211 114.307C91.1358 114.489 91.0168 114.646 90.8538 114.777C90.6909 114.909 90.481 115.012 90.224 115.088C89.9671 115.157 89.6569 115.191 89.2934 115.191H87.122V110.153H89.284C89.6412 110.153 89.9608 110.193 90.2428 110.275C90.5311 110.35 90.7567 110.482 90.9196 110.67C91.0888 110.851 91.1734 111.102 91.1734 111.422ZM90.4778 113.715C90.4778 113.427 90.3682 113.22 90.1488 113.095C89.9295 112.969 89.6068 112.907 89.1806 112.907H87.9492V114.524H89.1994C89.613 114.524 89.9295 114.464 90.1488 114.345C90.3682 114.22 90.4778 114.01 90.4778 113.715ZM90.3368 111.525C90.3368 111.287 90.2491 111.115 90.0736 111.008C89.9044 110.895 89.6256 110.839 89.237 110.839H87.9492V112.221H89.0866C89.494 112.221 89.8042 112.164 90.0172 112.051C90.2303 111.939 90.3368 111.763 90.3368 111.525Z" fill="#362C14"/>
<path d="M97.2757 108.479C97.8335 108.479 98.3003 108.533 98.6763 108.639C99.0586 108.746 99.3437 108.921 99.5317 109.166C99.726 109.41 99.8231 109.736 99.8231 110.143C99.8231 110.406 99.773 110.641 99.6727 110.848C99.5787 111.049 99.4346 111.218 99.2403 111.356C99.0523 111.487 98.8205 111.578 98.5447 111.628V111.675C98.8267 111.719 99.0805 111.801 99.3061 111.92C99.538 112.039 99.7197 112.208 99.8513 112.427C99.9829 112.647 100.049 112.932 100.049 113.283C100.049 113.69 99.9547 114.038 99.7667 114.326C99.5787 114.608 99.3093 114.824 98.9583 114.975C98.6137 115.119 98.2001 115.191 97.7175 115.191H95.3581V108.479H97.2757ZM97.4449 111.337C98.0215 111.337 98.4163 111.246 98.6293 111.064C98.8424 110.876 98.9489 110.601 98.9489 110.237C98.9489 109.867 98.8173 109.604 98.5541 109.448C98.2972 109.285 97.8836 109.203 97.3133 109.203H96.2041V111.337H97.4449ZM96.2041 112.042V114.477H97.5577C98.1531 114.477 98.5667 114.361 98.7985 114.129C99.0304 113.897 99.1463 113.593 99.1463 113.217C99.1463 112.979 99.0931 112.772 98.9865 112.597C98.8863 112.421 98.7139 112.286 98.4695 112.192C98.2314 112.092 97.9055 112.042 97.4919 112.042H96.2041Z" fill="#362C14"/>
<path d="M106.115 112.662C106.115 113.082 106.059 113.455 105.946 113.781C105.84 114.101 105.683 114.373 105.476 114.599C105.276 114.824 105.028 114.997 104.734 115.116C104.445 115.229 104.123 115.285 103.765 115.285C103.433 115.285 103.126 115.229 102.844 115.116C102.562 114.997 102.318 114.824 102.111 114.599C101.904 114.373 101.741 114.101 101.622 113.781C101.509 113.455 101.453 113.082 101.453 112.662C101.453 112.105 101.547 111.635 101.735 111.252C101.923 110.864 102.192 110.569 102.543 110.369C102.894 110.162 103.311 110.059 103.794 110.059C104.251 110.059 104.652 110.162 104.997 110.369C105.348 110.569 105.62 110.864 105.815 111.252C106.015 111.635 106.115 112.105 106.115 112.662ZM102.308 112.662C102.308 113.057 102.359 113.402 102.459 113.696C102.565 113.985 102.728 114.207 102.948 114.364C103.167 114.52 103.446 114.599 103.784 114.599C104.123 114.599 104.401 114.52 104.621 114.364C104.84 114.207 105 113.985 105.1 113.696C105.207 113.402 105.26 113.057 105.26 112.662C105.26 112.261 105.207 111.92 105.1 111.638C104.994 111.356 104.831 111.14 104.611 110.989C104.398 110.833 104.119 110.754 103.775 110.754C103.261 110.754 102.888 110.923 102.656 111.262C102.424 111.6 102.308 112.067 102.308 112.662Z" fill="#362C14"/>
<path d="M111.638 115.191H110.801V110.839H109.316C109.253 111.635 109.175 112.315 109.081 112.879C108.987 113.436 108.868 113.891 108.724 114.242C108.579 114.593 108.407 114.849 108.207 115.012C108.006 115.175 107.771 115.257 107.502 115.257C107.42 115.257 107.339 115.251 107.257 115.238C107.182 115.232 107.119 115.216 107.069 115.191V114.571C107.107 114.583 107.148 114.593 107.191 114.599C107.235 114.605 107.279 114.608 107.323 114.608C107.461 114.608 107.586 114.552 107.699 114.439C107.812 114.326 107.912 114.154 108 113.922C108.094 113.69 108.178 113.399 108.254 113.048C108.329 112.691 108.395 112.271 108.451 111.788C108.507 111.306 108.558 110.76 108.601 110.153H111.638V115.191Z" fill="#362C14"/>
<path d="M116.687 110.153V110.848H114.44V115.191H113.613V110.153H116.687Z" fill="#362C14"/>
<path d="M122.344 112.662C122.344 113.082 122.288 113.455 122.175 113.781C122.068 114.101 121.912 114.373 121.705 114.599C121.504 114.824 121.257 114.997 120.962 115.116C120.674 115.229 120.351 115.285 119.994 115.285C119.662 115.285 119.355 115.229 119.073 115.116C118.791 114.997 118.546 114.824 118.34 114.599C118.133 114.373 117.97 114.101 117.851 113.781C117.738 113.455 117.682 113.082 117.682 112.662C117.682 112.105 117.776 111.635 117.964 111.252C118.152 110.864 118.421 110.569 118.772 110.369C119.123 110.162 119.54 110.059 120.022 110.059C120.48 110.059 120.881 110.162 121.225 110.369C121.576 110.569 121.849 110.864 122.043 111.252C122.244 111.635 122.344 112.105 122.344 112.662ZM118.537 112.662C118.537 113.057 118.587 113.402 118.687 113.696C118.794 113.985 118.957 114.207 119.176 114.364C119.396 114.52 119.674 114.599 120.013 114.599C120.351 114.599 120.63 114.52 120.849 114.364C121.069 114.207 121.229 113.985 121.329 113.696C121.435 113.402 121.489 113.057 121.489 112.662C121.489 112.261 121.435 111.92 121.329 111.638C121.222 111.356 121.059 111.14 120.84 110.989C120.627 110.833 120.348 110.754 120.003 110.754C119.49 110.754 119.117 110.923 118.885 111.262C118.653 111.6 118.537 112.067 118.537 112.662Z" fill="#362C14"/>
<path d="M127.105 110.153V110.848H124.858V115.191H124.031V110.153H127.105Z" fill="#362C14"/>
<path d="M130.871 110.059C131.491 110.059 131.989 110.275 132.365 110.707C132.747 111.14 132.939 111.791 132.939 112.662C132.939 113.233 132.851 113.715 132.675 114.11C132.506 114.499 132.265 114.793 131.952 114.994C131.645 115.188 131.281 115.285 130.861 115.285C130.604 115.285 130.376 115.251 130.175 115.182C129.974 115.113 129.802 115.025 129.658 114.918C129.52 114.806 129.401 114.683 129.301 114.552H129.244C129.257 114.658 129.269 114.793 129.282 114.956C129.295 115.119 129.301 115.26 129.301 115.379V117.447H128.474V110.153H129.15L129.263 110.839H129.301C129.401 110.695 129.52 110.563 129.658 110.444C129.802 110.325 129.971 110.231 130.166 110.162C130.366 110.093 130.601 110.059 130.871 110.059ZM130.72 110.754C130.382 110.754 130.109 110.82 129.902 110.952C129.696 111.077 129.545 111.268 129.451 111.525C129.357 111.782 129.307 112.108 129.301 112.503V112.662C129.301 113.076 129.345 113.427 129.432 113.715C129.52 114.003 129.667 114.223 129.874 114.373C130.087 114.524 130.376 114.599 130.739 114.599C131.046 114.599 131.297 114.514 131.491 114.345C131.692 114.176 131.839 113.947 131.933 113.659C132.033 113.364 132.083 113.029 132.083 112.653C132.083 112.076 131.97 111.616 131.745 111.271C131.525 110.927 131.184 110.754 130.72 110.754Z" fill="#362C14"/>
<path d="M136.541 110.068C137.155 110.068 137.609 110.203 137.904 110.472C138.199 110.742 138.346 111.171 138.346 111.76V115.191H137.744L137.584 114.477H137.547C137.403 114.658 137.252 114.812 137.096 114.937C136.945 115.056 136.77 115.144 136.569 115.2C136.375 115.257 136.137 115.285 135.855 115.285C135.554 115.285 135.281 115.232 135.037 115.125C134.799 115.019 134.611 114.856 134.473 114.636C134.335 114.411 134.266 114.129 134.266 113.79C134.266 113.289 134.464 112.904 134.858 112.634C135.253 112.358 135.861 112.208 136.682 112.183L137.537 112.155V111.854C137.537 111.434 137.447 111.143 137.265 110.98C137.083 110.817 136.826 110.735 136.494 110.735C136.231 110.735 135.98 110.776 135.742 110.858C135.504 110.933 135.281 111.021 135.075 111.121L134.821 110.5C135.04 110.381 135.3 110.281 135.601 110.2C135.902 110.112 136.215 110.068 136.541 110.068ZM136.785 112.756C136.159 112.781 135.723 112.882 135.479 113.057C135.241 113.233 135.122 113.48 135.122 113.8C135.122 114.082 135.206 114.289 135.375 114.42C135.551 114.552 135.773 114.618 136.043 114.618C136.469 114.618 136.823 114.502 137.105 114.27C137.387 114.032 137.528 113.668 137.528 113.179V112.728L136.785 112.756Z" fill="#362C14"/>
<path d="M144.019 110.153V114.495H144.752V116.939H143.953V115.191H140.447V116.939H139.658V114.495H140.062C140.35 114.094 140.588 113.659 140.776 113.189C140.97 112.713 141.115 112.217 141.209 111.704C141.309 111.183 141.362 110.666 141.368 110.153H144.019ZM142.102 110.801C142.076 111.227 142.011 111.669 141.904 112.127C141.798 112.578 141.66 113.01 141.491 113.424C141.328 113.837 141.136 114.195 140.917 114.495H143.22V110.801H142.102Z" fill="#362C14"/>
<path d="M148.062 110.059C148.494 110.059 148.864 110.153 149.171 110.341C149.484 110.529 149.722 110.795 149.885 111.14C150.054 111.478 150.139 111.876 150.139 112.333V112.832H146.689C146.702 113.402 146.846 113.837 147.122 114.138C147.404 114.433 147.795 114.58 148.297 114.58C148.616 114.58 148.898 114.552 149.143 114.495C149.393 114.433 149.65 114.345 149.913 114.232V114.956C149.657 115.069 149.403 115.15 149.152 115.2C148.901 115.257 148.604 115.285 148.259 115.285C147.783 115.285 147.36 115.188 146.99 114.994C146.627 114.799 146.341 114.511 146.135 114.129C145.934 113.74 145.834 113.267 145.834 112.709C145.834 112.158 145.925 111.685 146.106 111.29C146.294 110.895 146.555 110.591 146.887 110.378C147.225 110.165 147.617 110.059 148.062 110.059ZM148.052 110.735C147.657 110.735 147.344 110.864 147.112 111.121C146.887 111.371 146.752 111.722 146.708 112.174H149.274C149.274 111.885 149.23 111.635 149.143 111.422C149.055 111.209 148.92 111.042 148.738 110.923C148.563 110.798 148.334 110.735 148.052 110.735Z" fill="#362C14"/>
</svg>
